<?xml version="1.0" standalone="no"?>
<!DOCTYPE svg PUBLIC "-//W3C//DTD SVG 20010904//EN"
 "http://www.w3.org/TR/2001/REC-SVG-20010904/DTD/svg10.dtd">
<svg version="1.0" xmlns="http://www.w3.org/2000/svg"
 width="512.000000pt" height="512.000000pt" viewBox="0 0 512.000000 512.000000"
 preserveAspectRatio="xMidYMid meet">

<g transform="translate(0.000000,512.000000) scale(0.100000,-0.100000)"
fill="#000000" stroke="none">
<path d="M1852 4790 c-596 -214 -925 -338 -948 -355 -106 -81 -121 -191 -49
-377 5 -12 -5 -23 -38 -42 -91 -54 -174 -165 -201 -271 -55 -209 39 -423 229
-521 80 -42 115 -49 350 -75 183 -19 203 -23 240 -49 59 -40 180 -99 259 -126
94 -32 194 -50 367 -65 l147 -12 24 -62 25 -62 -33 -27 c-51 -41 -74 -96 -109
-266 l-31 -155 -130 -53 c-71 -29 -523 -213 -1004 -408 -481 -195 -878 -358
-882 -362 -9 -9 41 -152 53 -152 5 0 246 95 536 211 291 116 549 219 575 230
l47 18 140 -421 c77 -232 139 -423 137 -425 -2 -2 -336 -141 -742 -309 -407
-169 -742 -309 -747 -313 -4 -4 7 -39 25 -79 l33 -71 85 35 c47 20 281 117
520 216 239 99 737 305 1106 458 l671 278 203 -24 c112 -13 206 -27 209 -29 3
-3 38 -106 78 -228 l72 -222 -118 -120 c-66 -66 -127 -136 -137 -155 -32 -63
-23 -139 31 -275 27 -66 49 -121 50 -123 3 -4 1359 529 1368 537 10 10 -66
214 -97 261 -13 20 -47 48 -77 64 -52 29 -59 30 -227 35 l-174 6 -68 165 c-38
91 -69 170 -70 175 0 6 84 52 187 103 103 52 201 105 218 118 52 39 89 118 89
189 0 54 -22 120 -233 685 -250 671 -270 722 -304 759 -37 40 -115 71 -181 71
-53 0 -82 -10 -248 -82 -112 -48 -193 -77 -198 -72 -5 5 -18 33 -29 61 l-21
53 120 140 c65 77 132 159 148 182 68 99 131 253 153 371 10 57 18 69 143 221
152 185 168 210 191 290 57 197 -47 422 -240 517 -66 32 -75 34 -177 34 l-107
0 -21 58 c-12 32 -36 74 -53 94 -41 47 -119 83 -177 83 -34 -1 -277 -84 -958
-330z m1017 124 c17 -22 190 -523 220 -640 33 -126 30 -326 -6 -459 -20 -76
-81 -209 -124 -272 -27 -38 -210 -257 -301 -359 -19 -21 -18 -23 18 -119 20
-53 32 -100 28 -104 -12 -10 -286 -123 -289 -119 -2 2 -21 48 -43 103 l-40
100 -183 17 c-228 21 -303 32 -382 60 -221 75 -406 227 -510 418 -44 79 -277
669 -277 699 0 42 42 66 260 144 118 43 512 185 875 316 371 134 676 239 697
240 28 1 41 -5 57 -25z m393 -204 c20 -6 59 -31 87 -56 81 -73 111 -183 76
-285 -17 -50 -134 -205 -144 -192 -4 4 -13 41 -19 80 -7 40 -41 160 -76 268
l-64 195 52 0 c28 0 68 -5 88 -10z m-2262 -1006 c79 -189 97 -226 162 -322
l49 -73 -43 5 c-24 3 -70 8 -103 11 -134 13 -223 69 -264 166 -54 123 -34 237
55 326 30 30 60 53 66 51 6 -2 42 -76 78 -164z m2374 -693 c15 -17 89 -191 83
-197 -1 -1 -87 -30 -192 -64 -104 -34 -194 -66 -199 -71 -13 -12 31 -149 47
-149 6 0 97 27 201 61 103 33 192 57 196 52 15 -14 98 -248 92 -254 -4 -4 -91
-34 -194 -69 -104 -34 -188 -62 -188 -63 1 -10 48 -148 51 -152 3 -2 93 24
199 60 106 36 195 63 197 61 8 -7 93 -238 93 -250 0 -7 -79 -38 -182 -71 -101
-32 -185 -60 -187 -62 -9 -6 43 -153 53 -153 6 0 89 27 184 60 96 33 180 60
187 60 16 0 55 -99 55 -139 0 -16 -7 -34 -15 -41 -8 -7 -169 -89 -356 -181
-259 -128 -350 -169 -378 -168 -20 0 -155 14 -300 32 l-264 32 -154 460 -154
460 30 159 c17 87 36 167 43 178 19 28 951 427 999 428 23 0 42 -7 53 -19z
m-1128 -1272 c75 -222 137 -410 137 -417 2 -14 -654 -295 -664 -284 -9 10
-282 833 -278 837 6 5 182 75 184 72 1 -1 48 -141 105 -312 57 -170 104 -311
105 -312 3 -4 139 39 147 46 5 4 -39 148 -97 321 -58 173 -105 318 -105 321 0
7 323 139 328 135 1 -2 63 -185 138 -407z m1199 -699 c35 -80 60 -148 57 -151
-10 -9 -285 -99 -289 -95 -5 5 -103 285 -103 295 0 5 19 11 43 14 23 2 80 23
127 46 47 22 89 39 93 38 5 -1 37 -68 72 -147z m558 -320 c14 -11 30 -34 36
-50 9 -28 8 -32 -12 -39 -12 -5 -248 -99 -525 -210 -276 -111 -506 -201 -511
-201 -13 0 -31 48 -31 83 0 28 17 49 147 175 l148 142 180 59 180 60 181 0
c167 1 183 -1 207 -19z"/>
<path d="M2575 4659 c-33 -21 -60 -42 -60 -46 0 -5 17 -39 37 -78 110 -213
154 -459 113 -633 -18 -74 -63 -168 -105 -215 -16 -19 -30 -39 -30 -44 0 -5
25 -33 55 -63 l55 -54 33 38 c204 242 230 563 74 944 -43 106 -90 193 -105
191 -4 0 -34 -18 -67 -40z"/>
<path d="M4160 4696 c0 -182 -83 -326 -232 -401 -43 -21 -91 -37 -128 -41
l-60 -7 0 -82 0 -82 53 -6 c214 -22 367 -206 367 -443 l0 -54 80 0 80 0 0 48
c0 172 70 309 198 391 53 33 139 61 189 61 l33 0 0 84 0 83 -60 7 c-120 14
-255 107 -310 216 -26 52 -50 157 -50 228 l0 52 -80 0 -80 0 0 -54z m90 -346
c0 -15 119 -138 156 -161 l34 -21 -40 -29 c-50 -37 -115 -103 -138 -141 -16
-27 -32 -37 -32 -20 0 19 -75 104 -127 144 l-55 42 23 19 c47 36 131 122 147
149 16 28 32 37 32 18z"/>
<path d="M510 3048 c0 -75 -20 -171 -46 -225 -58 -120 -187 -214 -314 -229
l-60 -7 0 -83 0 -84 33 0 c45 0 133 -27 183 -56 58 -34 131 -115 159 -177 25
-53 45 -153 45 -219 l0 -38 80 0 80 0 0 55 c0 222 153 407 357 433 l58 7 3 81
3 81 -60 7 c-38 4 -86 20 -129 41 -149 75 -232 219 -232 401 l0 54 -80 0 -80
0 0 -42z m102 -375 c22 -36 72 -89 127 -134 l43 -36 -51 -37 c-28 -21 -72 -64
-97 -97 l-46 -58 -42 55 c-22 31 -67 75 -98 99 l-58 43 34 21 c37 24 156 146
156 161 0 19 16 10 32 -17z"/>
<path d="M4490 3031 c0 -128 -38 -229 -121 -316 -61 -64 -138 -104 -229 -118
l-71 -12 3 -80 3 -80 60 -7 c115 -15 238 -97 298 -199 34 -58 57 -148 57 -226
l0 -63 84 0 84 0 4 98 c3 79 9 107 31 152 32 68 85 131 141 169 51 36 152 71
201 71 l35 0 0 85 0 85 -27 0 c-107 1 -247 79 -311 173 -48 71 -65 126 -71
227 l-6 95 -82 3 -83 3 0 -60z m164 -429 c27 -29 64 -62 83 -73 l33 -21 -48
-38 c-51 -41 -110 -101 -134 -138 -15 -22 -15 -22 -56 32 -23 29 -63 71 -89
92 -26 21 -52 41 -56 44 -4 4 17 26 47 49 30 23 74 67 97 98 l43 55 16 -23 c8
-13 37 -48 64 -77z"/>
</g>
</svg>
