<?xml version="1.0" standalone="no"?>
<!DOCTYPE svg PUBLIC "-//W3C//DTD SVG 20010904//EN"
 "http://www.w3.org/TR/2001/REC-SVG-20010904/DTD/svg10.dtd">
<svg version="1.0" xmlns="http://www.w3.org/2000/svg"
 width="512.000000pt" height="512.000000pt" viewBox="0 0 512.000000 512.000000"
 preserveAspectRatio="xMidYMid meet">

<g transform="translate(0.000000,512.000000) scale(0.100000,-0.100000)"
fill="#000000" stroke="none">
<path d="M1271 4164 c-926 -336 -1201 -440 -1223 -461 -35 -34 -53 -89 -44
-139 15 -77 32 -85 518 -264 l448 -165 0 -496 c0 -273 3 -511 7 -529 9 -46
118 -159 217 -224 330 -218 784 -317 1386 -303 438 10 756 74 1036 207 154 72
300 177 362 258 l27 35 5 520 5 520 175 63 c96 35 178 64 183 64 4 0 7 -280 7
-622 l0 -622 -214 -216 c-303 -304 -303 -276 -1 -580 l214 -215 3 -192 c3
-176 5 -194 24 -220 64 -86 184 -86 248 0 19 26 21 43 24 220 l3 192 203 205
c112 113 211 219 220 237 20 41 20 85 0 126 -9 18 -108 124 -220 237 l-204
205 2 680 3 679 135 51 c171 63 178 67 202 122 26 59 17 113 -26 159 -28 31
-139 73 -1233 469 -996 360 -1210 435 -1250 434 -36 -1 -335 -105 -1242 -435z
m2209 -216 c520 -188 948 -344 952 -347 4 -3 -432 -164 -969 -358 l-975 -351
-949 351 c-661 245 -944 354 -932 359 76 33 1892 687 1908 687 11 1 445 -153
965 -341z m-1618 -1145 c460 -172 592 -217 628 -216 32 0 218 63 628 212 321
116 586 211 588 211 2 0 4 -182 4 -404 l0 -405 -35 -29 c-174 -143 -518 -249
-914 -283 -172 -14 -527 -7 -681 15 -334 47 -613 141 -759 257 l-51 39 0 410
c0 226 2 410 4 410 2 0 267 -98 588 -217z m2783 -1193 l110 -110 -113 -113
-112 -112 -112 112 -113 113 110 110 c60 60 112 110 115 110 3 0 55 -50 115
-110z"/>
</g>
</svg>
