<?xml version="1.0"?>
<!-- 
	st0 = infinity sign
	st1 = leaf light region
	st2 = leaf dark region
	st3 = rose light region
	st4 = rose dark region
 -->
<svg xmlns="http://www.w3.org/2000/svg" xmlns:xlink="http://www.w3.org/1999/xlink" version="1.1" id="Capa_1" x="0px" y="0px" viewBox="0 0 512 512" style="enable-background:new 0 0 512 512;" xml:space="preserve" width="512px" height="512px" class="hovered-paths"><g><style type="text/css">
	.st0{fill:#f9aa33;}
	.st1{fill:#744909;}
	.st2{fill:#f9aa33;}
	.st3{fill:#744909;}
	.st4{fill:#f9aa33;}
</style><path class="st0 hovered-path active-path" d="M347.9,493.3" data-original="#000000" fill="#000000"/><path class="st0 hovered-path active-path" d="M627.2,461.6" data-original="#000000" fill="#000000"/><g>
	<g>
		<path class="st0 hovered-path active-path" d="M443.1,272c-0.3-0.4-1.4-0.1-1.8,0.1c-4.2,1.4-6.2,2.1-7.6,3c-3.1,2.1-12.1,6.4-26.9,12.9    c0.4-1.1,1-2.9,0.8-4.2c0-0.3-0.1-0.9-0.4-1c-0.3-0.1-0.7,0.2-0.8,0.4c-1.1,1-2.4,4.4-2.8,5.4c-0.9,0.1-2.2,0.4-3.9,0.6    c-5.7,0.6-9.6,0.2-16.1,0.1c-8.7-0.2-12.5-0.5-12.6,0c-0.1,0.7,6,2.8,12.8,3.6c15.4,2,28-3,33.7-5.7c1.6-0.8,2.9-1.4,3.7-1.9    c2.2,2.9,5.8,7.5,7.7,8.1c0.2,0.1,0.9,0.3,1.1,0.1c0.2-0.2-0.6-1-0.8-1.2c-0.9-0.9-2.6-3-5.9-7.9c4.3-2.1,18-8.8,19.5-11    C442.9,273.2,443.4,272.4,443.1,272z" data-original="#000000" fill="#000000"/>
		<path class="st1 hovered-path active-path" d="M435,304.4c4.5,2.4,9.7,2.2,13.7,0c0.5-0.3,0.6-0.8,0.4-1.3c-1.1-2.6-4.3-5.6-8.6-7.9s-8.7-3.3-11.7-2.8    c-0.5,0.1-0.9,0.5-0.9,1C428,297.7,430.5,302,435,304.4z" data-original="#000000" fill="#000000"/>
		<path class="st2 hovered-path active-path" d="M431,294.8c0-0.5,0.4-0.9,0.9-1c2.3-0.3,5.4,0.2,8.7,1.5c0,0-0.1,0-0.1,0c-4.3-2.3-8.7-3.3-11.7-2.8    c-0.5,0.1-0.9,0.5-0.9,1c0,4.3,2.6,8.6,7.1,11c0.8,0.4,1.5,0.7,2.3,1C433.3,303,431.1,298.9,431,294.8z" data-original="#000000" fill="#000000"/>
		<path class="st1 hovered-path active-path" d="M447.4,278.3c-1.2-1-2.2-2.2-2.8-3.7c-0.4-1.1-0.6-2.1-0.5-3.1c-1.1-0.4-2.1-0.9-3-1.7    c-1.3-1.1-2.2-2.4-2.7-3.7c-1.9-0.7-3.8-1-5.1-0.7c-0.3,0.1-0.5,0.3-0.5,0.6c0.1,2.4,1.7,4.7,4.2,6c1.8,0.9,3.7,1,5.4,0.6    c-1.1,1.2-1.7,2.9-1.5,4.7c0.3,2.6,2.1,4.7,4.5,5.8c0.3,0.1,0.6,0.1,0.8-0.2C446.9,281.8,447.4,280.2,447.4,278.3z" data-original="#000000" fill="#000000"/>
		<path class="st2 hovered-path active-path" d="M436.3,270c0-0.3,0.2-0.5,0.5-0.6c1.1-0.2,2.7,0,4.3,0.5c0,0-0.1,0-0.1-0.1c-1.3-1.1-2.2-2.4-2.7-3.7    c-1.9-0.7-3.8-1-5.1-0.7c-0.3,0.1-0.5,0.3-0.5,0.6c0.1,2.3,1.5,4.5,3.9,5.8C436.5,271.2,436.3,270.6,436.3,270z" data-original="#000000" fill="#000000"/>
		<path class="st3 hovered-path active-path" d="M477.8,270.1c-0.1-0.8-1.1-8.1-7.6-11.7c-0.6-0.3-1.3-0.6-2-0.9l-0.2-0.1l0,0.2c0,2.6-0.8,4.9-2.3,7.1    l0.1,0.1c1.8,0.9,3.4,2.2,4.8,3.7l0,0l0.1,0c2.1,0,3.9,0.7,5.7,2.1C477,271.1,477.9,270.8,477.8,270.1z" data-original="#000000" fill="#000000"/>
		<path class="st4 hovered-path active-path" d="M472.4,259.9c-0.7-0.6-1.4-1.1-2.2-1.5c-0.6-0.3-1.3-0.6-2-0.9l-0.2-0.1l0,0.2c0,2.6-0.8,4.9-2.3,7.1l0.1,0.1    c1.4,0.7,2.7,1.7,3.9,2.8C471.3,265.2,472.2,262.7,472.4,259.9z" data-original="#000000" fill="#000000"/>
		<path class="st3 hovered-path active-path" d="M468.1,255.7c-1.1-6.8-8.2-10.5-9-10.9c-0.7-0.3-1.4,0.2-1.1,0.9c0.8,2,0.7,3.8-0.1,5.5l0,0.1l0,0.1    c1.4,2.4,2.1,4.8,2,7.1c-0.1,1.7-0.4,3.1-0.9,4.6l0.2,0c1.6,0.1,3.3,0.5,4.9,1.1c0.6,0.2,1.2,0.5,1.7,0.8l0.1,0.1    C467.9,262,468.6,259,468.1,255.7z" data-original="#000000" fill="#000000"/>
		<path class="st4 hovered-path active-path" d="M462.5,263.5c2-3.2,2.7-6.6,2.2-10.4c-0.4-2.7-1.7-5-3.1-6.9c-1.2-0.9-2.2-1.4-2.5-1.5    c-0.7-0.3-1.4,0.2-1.1,0.9c0.8,2,0.7,3.8-0.1,5.5l0,0.1l0,0.1c1.4,2.4,2.1,4.8,2,7.1c-0.1,1.7-0.4,3.1-0.9,4.5    c0.1,0,0.1,0,0.2,0.1l0,0C460.3,263.1,461.4,263.3,462.5,263.5z" data-original="#000000" fill="#000000"/>
		<path class="st3 hovered-path active-path" d="M449.2,264.8c3.2-1.5,6.6-2.1,10-1.8l0.1,0c0.5-1.4,0.8-2.9,0.9-4.6c0.1-7.9-7.3-13.3-8.2-13.9    c-0.7-0.5-1.6,0-1.4,0.8c1.1,5.8-2.9,8.7-8.6,11.2l0,0c-4.5,2.4-5.5,7.8-2.5,11.8c0.4,0.6,1,1.2,1.6,1.7c0.9,0.7,1.9,1.3,3.1,1.7    l0.2,0.1l0-0.2C444.5,268.9,446.5,266.2,449.2,264.8z" data-original="#000000" fill="#000000"/>
		<path class="st4 hovered-path active-path" d="M445.7,260.6L445.7,260.6c5.7-2.7,10.3-5.7,9.2-11.6c-0.1-0.4,0.1-0.7,0.5-0.9c0.1-0.1,0.3-0.1,0.4-0.1    c-1.7-1.9-3.4-3.1-3.8-3.4c-0.7-0.5-1.6,0-1.4,0.8c1.1,5.8-2.9,8.7-8.6,11.2l0,0c-4.5,2.4-5.5,7.8-2.5,11.8c0.4,0.6,1,1.2,1.6,1.7    c0.1,0.1,0.3,0.2,0.4,0.3C440.2,266.6,441.9,262.6,445.7,260.6z" data-original="#000000" fill="#000000"/>
		<path class="st3 hovered-path active-path" d="M475.2,276c-0.3-0.9-2.9-9.1-11.1-12.2c-3.5-1.2-9-2.1-15.1,0.7c-3.5,1.8-6.2,6-4.5,10.3    c0.3,0.7,0.7,1.4,1.1,2c3,4,8.9,5.3,13.2,2.6l0,0c4.8-3.6,9.6-5.7,15-2.5C474.6,277.3,475.5,276.7,475.2,276z" data-original="#000000" fill="#000000"/>
		<path class="st4 hovered-path active-path" d="M452.3,268.9c7-3.2,15.6-2.5,21.3,3.3c-1.6-2.9-4.5-6.6-9.4-8.4c-3.5-1.2-9-2.1-15.1,0.7    c-3.5,1.8-6.2,6-4.5,10.3c0.3,0.7,0.7,1.4,1.1,2c0.5,0.7,1.2,1.4,1.9,2C446.3,274.5,448.9,270.6,452.3,268.9z" data-original="#000000" fill="#000000"/>
		<g>
			<path class="st1 hovered-path active-path" d="M409.2,270.4c0.4-0.1,0.8,0.1,1,0.4c2.4,3.9,0.8,11.7-2.9,14.3c-0.3,0.2-0.7,0.2-1,0     C400.4,280.5,402.1,272.1,409.2,270.4z" data-original="#000000" fill="#000000"/>
			<g>
				<path class="st2 hovered-path active-path" d="M410.8,272.3c-0.2-0.6-0.4-1.1-0.7-1.5c-0.2-0.3-0.6-0.5-1-0.4c-7.1,1.8-8.8,10.1-2.9,14.6      c0.3,0.2,0.7,0.3,1,0c0.1-0.1,0.2-0.2,0.4-0.3C404.2,280.4,405.7,274.5,410.8,272.3z" data-original="#000000" fill="#000000"/>
			</g>
		</g>
	</g>
	<g>
		<path class="st0 hovered-path active-path" d="M48.8,161.9c16.6-14.7,40.6-12.9,57.2-11.5c18.2,1.6,32.2,6.4,41.9,9.9c11,4.1,20.3,8.7,31.2,14.9    c15.8,9,39.4,24,67.5,47.5c1.4-1.6,2.8-3.2,4.4-4.6c-24.3-18.6-45.5-32.4-61.4-41.9c-18.1-10.9-27.5-15.4-37.2-19    c-20.1-7.5-36.2-9.4-46.1-10.4c-26.4-2.9-38.6,0.9-42.4,2.2c-4.7,1.6-9.5,3.3-14.6,7.2c-16.8,12.9-18.7,35.6-17.5,36    C32.9,192.5,34.4,174.6,48.8,161.9z" data-original="#000000" fill="#000000"/>
		<path class="st0 hovered-path active-path" d="M383.4,291.3c-0.1-0.7-0.1-1.4,0-2.1c-14.5-2.1-25.9-6-34.3-9.1c-11-4.1-20.3-8.7-31.2-14.9    c-15.8-9-39.4-24-67.5-47.5c-1.4,1.6-2.8,3.2-4.4,4.6c24.3,18.6,45.5,32.4,61.4,41.9c18.1,10.9,27.5,15.4,37.2,19    c15.9,5.9,29.2,8.3,39,9.6C383.6,292.4,383.5,291.9,383.4,291.3z" data-original="#000000" fill="#000000"/>
		<path class="st0 hovered-path active-path" d="M50.9,283.4c16.5,14.7,40.5,13.1,57.2,11.8c18.2-1.5,32.2-6.2,41.9-9.7c11.1-4,20.3-8.6,31.3-14.8    c15.8-9,39.5-23.8,67.7-47.2c1.4,1.6,2.8,3.2,4.4,4.6c-24.4,18.5-45.7,32.2-61.5,41.6c-18.1,10.8-27.5,15.2-37.2,18.8    c-20.1,7.4-36.2,9.2-46.1,10.2c-26.4,2.8-38.6-1.1-42.3-2.4c-4.7-1.6-9.5-3.3-14.6-7.3c-16.8-13-18.5-35.7-17.4-36.1    C35.2,252.7,36.6,270.6,50.9,283.4z" data-original="#000000" fill="#000000"/>
		<path class="st0 hovered-path active-path" d="M451,168.5c-16.5-14.7-40.5-13.1-57.2-11.8c-18.2,1.5-32.2,6.2-41.9,9.7c-11.1,4-20.3,8.6-31.3,14.8    c-15.8,9-39.5,23.8-67.7,47.2c-1.4-1.6-2.8-3.2-4.4-4.6c24.4-18.5,45.7-32.2,61.5-41.6c18.1-10.8,27.5-15.2,37.2-18.8    c20.1-7.4,36.2-9.2,46.1-10.2c26.4-2.8,38.6,1.1,42.3,2.4c4.7,1.6,9.5,3.3,14.6,7.3c16.8,13,18.5,35.7,17.4,36.1    C466.7,199.2,465.3,181.2,451,168.5z" data-original="#000000" fill="#000000"/>
	</g>
</g></g> </svg>
