<?xml version="1.0" encoding="utf-8"?>
<!-- Generator: Adobe Illustrator 24.1.2, SVG Export Plug-In . SVG Version: 6.00 Build 0)  -->
<svg version="1.1" id="Layer_1" xmlns="http://www.w3.org/2000/svg" xmlns:xlink="http://www.w3.org/1999/xlink" x="0px" y="0px"
	 viewBox="0 0 512 512" style="enable-background:new 0 0 512 512;" xml:space="preserve">
<style type="text/css">
	.st0{fill:#FFFFFF;}
	.st1{fill:#FFDB00;}
	.st2{fill:#FF000A;}
	.st3{fill:#FFFFFF;stroke:#FFFFFF;stroke-miterlimit:10;}
</style>
<g>
	<g id="Cloud_network">
		<path class="st0" d="M328,192c2.2,0,4.3-0.9,5.9-2.6l49.6-53.4H416c0.5,0,0.9-0.1,1.4-0.3c4.3,12.6,17.9,19.3,30.4,15
			c12.6-4.3,19.3-17.9,15-30.4s-17.9-19.3-30.4-15c-7.1,2.4-12.6,7.9-15,15c-0.5-0.1-0.9-0.2-1.4-0.3h-36c-2.2,0-4.3,0.9-5.9,2.6
			l-52,56c-3,3.2-2.8,8.3,0.4,11.3C324,191.2,326,192,328,192z M440,120c4.4,0,8,3.6,8,8c0,4.4-3.6,8-8,8s-8-3.6-8-8
			C432,123.6,435.6,120,440,120z"/>
		<path class="st0" d="M304,360c-10.2,0-19.3,6.6-22.6,16.3c-0.5-0.1-0.9-0.2-1.4-0.3h-32.5l-49.6-53.4c-3-3.2-8.1-3.4-11.3-0.4
			c-3.2,3-3.4,8.1-0.4,11.3l52,56c1.5,1.6,3.6,2.5,5.8,2.6h36c0.5,0,0.9-0.1,1.4-0.3c4.3,12.5,17.9,19.2,30.4,14.9
			c12.5-4.3,19.2-17.9,14.9-30.4C323.4,366.5,314.2,360,304,360z M304,392c-4.4,0-8-3.6-8-8s3.6-8,8-8s8,3.6,8,8S308.4,392,304,392z
			"/>
		<path class="st0" d="M472,240c-14.6,0.1-27.4,10-30.9,24.2c-0.4-0.1-0.7-0.2-1.1-0.2h-12.7l-21.7-21.7c-1.5-1.5-3.5-2.3-5.7-2.3
			h-24c-0.8,0-1.5,0.2-2.2,0.4c-0.8-2.9-1.9-5.7-3.2-8.4H408c4.4,0,8-3.6,8-8s-3.6-8-8-8h-48c-0.2,0-0.5,0.1-0.7,0.1
			c-10.3-10.2-24.3-16-38.8-16.1c-17.6-35.6-60.8-50.2-96.4-32.5c-19.7,9.8-33.9,28-38.4,49.5c-3.2-0.7-6.4-1-9.6-1
			c-20.3,0-38.4,12.8-45.2,32h-15.5l-21.7-21.7c-1.5-1.5-3.5-2.3-5.7-2.3H72c-0.4,0-0.7,0.1-1.1,0.2c-4.3-17.1-21.7-27.6-38.8-23.3
			S4.6,222.6,8.9,239.8s21.7,27.6,38.8,23.3c11.4-2.9,20.4-11.8,23.3-23.3c0.4,0.1,0.7,0.2,1.1,0.2h12.7l21.7,21.7
			c1.5,1.5,3.5,2.3,5.7,2.3h16c0,2.7,0.3,5.4,0.7,8H64c-4.4,0-8,3.6-8,8s3.6,8,8,8h70.5c2.7,4.6,6,8.7,10,12.2L124.7,320H96
			c-0.5,0-0.9,0.1-1.4,0.3c-4.3-12.6-17.9-19.3-30.4-15c-12.6,4.3-19.3,17.9-15,30.4s17.9,19.3,30.4,15c7.1-2.4,12.6-7.9,15-15
			c0.5,0.1,0.9,0.2,1.4,0.3h32c2.1,0,4.2-0.8,5.7-2.3l25-25c5.5,2.2,11.4,3.3,17.4,3.3h152c1.5,0,3-0.5,4.2-1.4
			c25.6-5.6,43.9-28.4,43.8-54.6h20.7l21.7,21.7c1.5,1.5,3.5,2.3,5.7,2.3h16c0.4,0,0.7-0.1,1.1-0.2c4.3,17.1,21.7,27.5,38.8,23.1
			c17.1-4.3,27.5-21.7,23.1-38.8C499.4,249.9,486.6,240,472,240z M40,248c-8.8,0-16-7.2-16-16s7.2-16,16-16s16,7.2,16,16
			S48.8,248,40,248z M72,336c-4.4,0-8-3.6-8-8s3.6-8,8-8s8,3.6,8,8S76.4,336,72,336z M326.7,295.4c-0.7,0.1-1.3,0.3-1.9,0.6H176
			c-17.7,0-32-14.3-32-32s14.3-32,32-32c4.5,0,8.9,1,13,2.8c4,1.8,8.8-0.1,10.5-4.1c0.4-0.8,0.6-1.7,0.7-2.7
			c2.1-30.8,28.7-54.1,59.5-52.1c21.5,1.4,40.3,15.2,48.3,35.2c1.3,3.3,4.7,5.3,8.2,5c1.3-0.1,2.5-0.2,3.8-0.2
			c22.1,0.1,39.9,18.2,39.7,40.3C359.6,275.6,345.7,292,326.7,295.4L326.7,295.4z M472,288c-8.8,0-16-7.2-16-16s7.2-16,16-16
			s16,7.2,16,16S480.8,288,472,288z"/>
		<path d="M368,256c0-26.5-21.5-48-48-48c-1.6,0-3.1,0.1-4.6,0.2c-13-32.8-50.2-48.8-83-35.8c-22.9,9.1-38.5,30.5-40.2,55.1
			c-20.2-9-43.8,0-52.9,20.1c-9,20.2,0,43.8,20.1,52.9c5.2,2.3,10.8,3.5,16.6,3.5h152v-0.7C351.1,299.4,368,279.4,368,256z"/>
		<circle class="st1" cx="40" cy="232" r="24"/>
		<circle class="st2" cx="472" cy="272" r="24"/>
		<circle class="st1" cx="72" cy="328" r="16"/>
		<circle class="st1" cx="440" cy="128" r="16"/>
		<circle class="st1" cx="304" cy="384" r="16"/>
		<path class="st0" d="M40,272h-8c-4.4,0-8,3.6-8,8s3.6,8,8,8h8c4.4,0,8-3.6,8-8S44.4,272,40,272z"/>
		<path class="st3" d="M432,216c-4.4,0-8,3.6-8,8s3.6,8,8,8h8c4.4,0,8-3.6,8-8s-3.6-8-8-8H432z"/>
		<path class="st0" d="M320,272h-64c-4.4,0-8,3.6-8,8s3.6,8,8,8h64c4.4,0,8-3.6,8-8S324.4,272,320,272z"/>
		<path class="st0" d="M232,272h-8c-4.4,0-8,3.6-8,8s3.6,8,8,8h8c4.4,0,8-3.6,8-8S236.4,272,232,272z"/>
	</g>
</g>
</svg>
