<?xml version="1.0"?>
<svg xmlns="http://www.w3.org/2000/svg" viewBox="0 0 64 64" width="512px" height="512px" class=""><g><g><g id="Cloud_network" data-name="Cloud network"><path d="M46,32a6,6,0,0,0-6-6c-.2,0-.386.011-.576.029a7.992,7.992,0,0,0-15.4,2.409A5,5,0,1,0,22,38H41v-.09A6,6,0,0,0,46,32Z" style="fill:#FBFBFF" data-original="#FBFBFF" class="" data-old_color="#E0E0E2"/><circle cx="5" cy="29" r="3" style="fill:#FFDB00" data-original="#FFDB00" class="" data-old_color="#FFDE17"/><circle cx="59" cy="34" r="3" style="fill:#FF000A" data-original="#FF000A" class="" data-old_color="#ED1C24"/><circle cx="9" cy="41" r="2" style="fill:#FFDB00" data-original="#FFDB00" class="" data-old_color="#FFDE17"/><circle cx="55" cy="16" r="2" style="fill:#FFDB00" data-original="#FFDB00" class="" data-old_color="#FFDE17"/><circle cx="38" cy="48" r="2" style="fill:#FFDB00" data-original="#FFDB00" class="" data-old_color="#FFDE17"/><path d="M59,30a4,4,0,0,0-3.866,3.027A1.026,1.026,0,0,0,55,33H53.414l-2.707-2.707A1,1,0,0,0,50,30H47a1.009,1.009,0,0,0-.28.056A6.894,6.894,0,0,0,46.315,29H51a1,1,0,0,0,0-2H45a.935.935,0,0,0-.092.018A6.975,6.975,0,0,0,40.059,25a8.992,8.992,0,0,0-16.853,2.125A5.885,5.885,0,0,0,22,27a6,6,0,0,0-5.65,4H14.414l-2.707-2.707A1,1,0,0,0,11,28H9a1.026,1.026,0,0,0-.134.027,4,4,0,1,0,0,1.946A1.026,1.026,0,0,0,9,30h1.586l2.707,2.707A1,1,0,0,0,14,33h2a6,6,0,0,0,.09,1H8a1,1,0,0,0,0,2h8.812a6.044,6.044,0,0,0,1.254,1.52L15.586,40H12a.9.9,0,0,0-.173.035,3,3,0,1,0,0,1.93A.9.9,0,0,0,12,42h4a1,1,0,0,0,.707-.293l3.12-3.12A5.969,5.969,0,0,0,22,39H41a.9.9,0,0,0,.524-.174A6.972,6.972,0,0,0,47,32h2.586l2.707,2.707A1,1,0,0,0,53,35h2a1.026,1.026,0,0,0,.134-.027A3.994,3.994,0,1,0,59,30ZM5,31a2,2,0,1,1,2-2A2,2,0,0,1,5,31ZM9,42a1,1,0,1,1,1-1A1,1,0,0,1,9,42Zm31.834-5.076A.849.849,0,0,0,40.6,37H22a4,4,0,0,1,0-8,3.954,3.954,0,0,1,1.622.352,1,1,0,0,0,1.4-.845A6.992,6.992,0,0,1,38.5,26.4a1,1,0,0,0,1.025.623c.158-.015.317-.024.479-.024a5,5,0,0,1,.834,9.924ZM59,36a2,2,0,1,1,2-2A2,2,0,0,1,59,36Z" data-original="#000000" class="active-path" style="fill:#000000"/><path d="M5,34H4a1,1,0,0,0,0,2H5a1,1,0,0,0,0-2Z" data-original="#000000" class="active-path" style="fill:#000000"/><path d="M54,27a1,1,0,0,0,0,2h1a1,1,0,0,0,0-2Z" data-original="#000000" class="active-path" style="fill:#000000"/><path d="M40,34H32a1,1,0,0,0,0,2h8a1,1,0,0,0,0-2Z" data-original="#000000" class="active-path" style="fill:#000000"/><path d="M29,34H28a1,1,0,0,0,0,2h1a1,1,0,0,0,0-2Z" data-original="#000000" class="active-path" style="fill:#000000"/><path d="M41,24a1,1,0,0,0,.733-.319L47.936,17H52a.9.9,0,0,0,.173-.035,3,3,0,1,0,0-1.93A.9.9,0,0,0,52,15H47.5a1,1,0,0,0-.733.319l-6.5,7A1,1,0,0,0,41,24Zm14-9a1,1,0,1,1-1,1A1,1,0,0,1,55,15Z" data-original="#000000" class="active-path" style="fill:#000000"/><path d="M38,45a3,3,0,0,0-2.827,2.035A.9.9,0,0,0,35,47H30.936l-6.2-6.681a1,1,0,0,0-1.466,1.362l6.5,7A1,1,0,0,0,30.5,49H35a.9.9,0,0,0,.173-.035A2.994,2.994,0,1,0,38,45Zm0,4a1,1,0,1,1,1-1A1,1,0,0,1,38,49Z" data-original="#000000" class="active-path" style="fill:#000000"/></g></g></g> </svg>
