<svg id="Layer_3" enable-background="new 0 0 64 64" height="512" viewBox="0 0 64 64" width="512" xmlns="http://www.w3.org/2000/svg"><g><g><path d="m28 37h-3l-4 4-4-4h-3c-6.627 0-12 5.373-12 12v10h30v-17h5.733c-2.178-3.024-5.721-5-9.733-5z" fill="#689eb8"/></g><g><path d="m28 37h-3l-4 4-4-4h-3c-6.627 0-12 5.373-12 12v10h30v-17h5.733c-2.178-3.024-5.721-5-9.733-5z" fill="#689eb8"/></g><g><path d="m30.685 37.315c-.864-.199-1.76-.315-2.685-.315h-3l-4 4 3 3z" fill="#e3e5e9"/></g><g><path d="m11.313 37.313 6.687 6.687 3-3-4-4h-3c-.925 0-1.822.115-2.687.313z" fill="#e3e5e9"/></g><g><path d="m33 19h2c1.105 0 2 .895 2 2v2c0 1.105-.895 2-2 2h-2z" fill="#fcd4a5"/></g><g><path d="m9 19h-2c-1.105 0-2 .895-2 2v2c0 1.105.895 2 2 2h2z" fill="#fcd4a5"/></g><g><path d="m9 9 3 3 3-3 3 3 3-3 3 3 3-3 3 3 3-3v17.172c0 1.811-.719 3.548-2 4.828-1.281 1.281-3.017 2-4.828 2h-10.344c-1.811 0-3.548-.719-4.828-2-1.281-1.281-2-3.017-2-4.828z" fill="#fcd4a5"/></g><g><path d="m17 33v4l4 4 4-4v-4z" fill="#fcd4a5"/></g><g><path d="m35 4c-1.281-1.281-3.017-2-4.828-2h-.172l-2 2-2-2h-14.172c-1.811 0-3.547.719-4.828 2s-2 3.017-2 4.828v.515c0 3.622 1.439 7.096 4 9.657v-10l3 3 3-3 3 3 3-3 3 3 3-3 3 3 3-3v10c2.561-2.561 4-6.035 4-9.657v-.515c0-1.811-.719-3.547-2-4.828z" fill="#58616c"/></g><g><circle cx="26" cy="19" fill="#8bd2f5" r="3"/></g><g><ellipse cx="25" cy="19" fill="#a2dbf7" rx="2" ry="2.816"/></g><g><circle cx="16" cy="19" fill="#8bd2f5" r="3"/></g><g><ellipse cx="15" cy="19" fill="#a2dbf7" rx="2" ry="2.816"/></g><g><path d="m32 42h30v20h-30z" fill="#58616c"/></g><g><path d="m32 42h27v20h-27z" fill="#758190"/></g><g><path d="m32 48h30v14h-30z" fill="#b9c0c9"/></g><g><path d="m32 48h27v14h-27z" fill="#dcdfe4"/></g><g><path d="m16 23c-2.206 0-4-1.794-4-4s1.794-4 4-4 4 1.794 4 4-1.794 4-4 4zm0-6c-1.103 0-2 .897-2 2s.897 2 2 2 2-.897 2-2-.897-2-2-2z"/></g><g><path d="m26 23c-2.206 0-4-1.794-4-4s1.794-4 4-4 4 1.794 4 4-1.794 4-4 4zm0-6c-1.103 0-2 .897-2 2s.897 2 2 2 2-.897 2-2-.897-2-2-2z"/></g><g><path d="m19 18h4v2h-4z"/></g><g><path d="m21 30c-2.206 0-4-1.794-4-4v-1h2v1c0 1.103.897 2 2 2s2-.897 2-2v-1h2v1c0 2.206-1.794 4-4 4z"/></g><g><path d="m9 26h-2c-1.654 0-3-1.346-3-3v-2c0-1.654 1.346-3 3-3h2v2h-2c-.552 0-1 .449-1 1v2c0 .551.448 1 1 1h2z"/></g><g><path d="m35 26h-2v-2h2c.552 0 1-.449 1-1v-2c0-.551-.448-1-1-1h-2v-2h2c1.654 0 3 1.346 3 3v2c0 1.654-1.346 3-3 3z"/></g><g><path d="m29 18h4v2h-4z"/></g><g><path d="m9 18h4v2h-4z"/></g><g><path d="m21 42c-.256 0-.512-.098-.707-.293l-4-4c-.188-.187-.293-.442-.293-.707v-4h2v3.586l3 3 3-3v-3.586h2v4c0 .265-.105.52-.293.707l-4 4c-.195.195-.451.293-.707.293z"/></g><g><path d="m32 60h-30c-.553 0-1-.448-1-1v-10.05c0-3.459 1.347-6.711 3.793-9.157s5.698-3.793 9.157-3.793h3.05v2h-3.05c-2.925 0-5.675 1.139-7.743 3.207s-3.207 4.818-3.207 7.743v9.05h29z"/></g><g><path d="m36.958 42.582c-.349-.487-.741-.95-1.165-1.375-2.068-2.068-4.818-3.207-7.743-3.207h-3.05v-2h3.05c3.459 0 6.711 1.347 9.157 3.793.502.502.966 1.049 1.378 1.625z"/></g><g><path d="m26.172 34h-10.344c-2.092 0-4.058-.814-5.535-2.293-1.479-1.479-2.293-3.445-2.293-5.536v-17.171c0-.404.243-.769.617-.924.375-.154.804-.069 1.09.217l2.293 2.293 2.293-2.293c.391-.391 1.023-.391 1.414 0l2.293 2.293 2.293-2.293c.391-.391 1.023-.391 1.414 0l2.293 2.293 2.293-2.293c.391-.391 1.023-.391 1.414 0l2.293 2.293 2.293-2.293c.286-.286.717-.372 1.09-.217.374.155.617.52.617.924v17.171c0 2.091-.814 4.057-2.293 5.536-1.478 1.479-3.443 2.293-5.535 2.293zm-16.172-22.586v14.757c0 1.557.606 3.021 1.707 4.122s2.564 1.707 4.121 1.707h10.344c1.557 0 3.021-.606 4.121-1.707 1.101-1.101 1.707-2.565 1.707-4.122v-14.757l-1.293 1.293c-.391.391-1.023.391-1.414 0l-2.293-2.293-2.293 2.293c-.391.391-1.023.391-1.414 0l-2.293-2.293-2.293 2.293c-.391.391-1.023.391-1.414 0l-2.293-2.293-2.293 2.293c-.391.391-1.023.391-1.414 0z"/></g><g><path d="m33.707 19.707-1.414-1.414c2.391-2.39 3.707-5.568 3.707-8.95v-.514c0-1.557-.606-3.021-1.707-4.122-1.044-1.044-2.416-1.644-3.884-1.702l-1.702 1.702c-.391.391-1.023.391-1.414 0l-1.707-1.707h-13.758c-1.557 0-3.021.606-4.121 1.707-1.101 1.101-1.707 2.565-1.707 4.122v.515c0 3.381 1.316 6.56 3.707 8.95l-1.414 1.414c-2.769-2.769-4.293-6.449-4.293-10.365v-.514c0-2.091.814-4.057 2.293-5.536 1.478-1.479 3.443-2.293 5.535-2.293h14.172c.266 0 .52.105.707.293l1.293 1.293 1.293-1.293c.187-.188.441-.293.707-.293h.172c2.092 0 4.058.814 5.535 2.293 1.479 1.479 2.293 3.445 2.293 5.536v.515c0 3.915-1.524 7.595-4.293 10.363z"/></g><g><path d="m18 45c-.256 0-.512-.098-.707-.293l-7-7 1.414-1.414 6.293 6.293 2.293-2.293 1.414 1.414-3 3c-.195.195-.451.293-.707.293z"/></g><g><path d="m20 41h2v18h-2z"/></g><g><path d="m24 45c-.256 0-.512-.098-.707-.293l-3-3 1.414-1.414 2.293 2.293 6.293-6.293 1.414 1.414-7 7c-.195.195-.451.293-.707.293z"/></g><g><path d="m7 47h2v12h-2z"/></g><g><path d="m24 47h2v2h-2z"/></g><g><path d="m24 51h2v2h-2z"/></g><g><path d="m62 63h-30c-.553 0-1-.448-1-1v-20c0-.552.447-1 1-1h30c.553 0 1 .448 1 1v20c0 .552-.447 1-1 1zm-29-2h28v-18h-28z"/></g><g><path d="m32 47h30v2h-30z"/></g><g><path d="m41.293 59.707-4-4c-.391-.391-.391-1.023 0-1.414l4-4 1.414 1.414-3.293 3.293 3.293 3.293z"/></g><g><path d="m52.707 59.707-1.414-1.414 3.293-3.293-3.293-3.293 1.414-1.414 4 4c.391.391.391 1.023 0 1.414z"/></g><g><path d="m44 54h6v2h-6z"/></g></g></svg>